<svg width="38" height="10" viewBox="0 0 38 10" fill="none" xmlns="http://www.w3.org/2000/svg">
<path d="M3.004 2.352C2.74 2.352 2.516 2.26 2.332 2.076C2.148 1.892 2.056 1.668 2.056 1.404C2.056 1.14 2.148 0.916 2.332 0.732C2.516 0.539999 2.74 0.443999 3.004 0.443999C3.268 0.443999 3.492 0.539999 3.676 0.732C3.868 0.916 3.964 1.14 3.964 1.404C3.964 1.668 3.868 1.892 3.676 2.076C3.492 2.26 3.268 2.352 3.004 2.352ZM2.188 9.072C1.804 9.072 1.492 8.952 1.252 8.712C1.02 8.472 0.904 8.112 0.904 7.632C0.904 7.432 0.936 7.172 1 6.852L1.816 3H3.544L2.68 7.08C2.648 7.2 2.632 7.328 2.632 7.464C2.632 7.624 2.668 7.74 2.74 7.812C2.82 7.876 2.948 7.908 3.124 7.908C3.356 7.908 3.572 7.812 3.772 7.62C3.972 7.42 4.116 7.164 4.204 6.852H4.708C4.412 7.716 4.032 8.304 3.568 8.616C3.104 8.92 2.644 9.072 2.188 9.072ZM8.53122 9.072C8.04322 9.072 7.68322 8.944 7.45122 8.688C7.22722 8.424 7.11522 8.1 7.11522 7.716C7.11522 7.548 7.13522 7.36 7.17522 7.152C7.21522 6.936 7.25522 6.728 7.29522 6.528C7.34322 6.328 7.37522 6.2 7.39122 6.144C7.45522 5.864 7.51522 5.588 7.57122 5.316C7.62722 5.044 7.65522 4.824 7.65522 4.656C7.65522 4.248 7.51122 4.044 7.22322 4.044C7.01522 4.044 6.83122 4.148 6.67122 4.356C6.51122 4.556 6.38322 4.82 6.28722 5.148L5.47122 9H3.74322L5.01522 3H6.74322L6.61122 3.624C7.01122 3.176 7.47922 2.952 8.01522 2.952C8.42322 2.952 8.74722 3.064 8.98722 3.288C9.22722 3.512 9.34722 3.852 9.34722 4.308C9.34722 4.54 9.31922 4.8 9.26322 5.088C9.20722 5.368 9.12722 5.712 9.02322 6.12C8.95922 6.368 8.89922 6.612 8.84322 6.852C8.79522 7.084 8.77122 7.268 8.77122 7.404C8.77122 7.564 8.80722 7.688 8.87922 7.776C8.95122 7.864 9.07522 7.908 9.25122 7.908C9.49122 7.908 9.68322 7.824 9.82722 7.656C9.97122 7.48 10.1152 7.212 10.2592 6.852H10.7632C10.4672 7.732 10.1232 8.324 9.73122 8.628C9.34722 8.924 8.94722 9.072 8.53122 9.072ZM14.7698 9.072C14.2738 9.072 13.8978 8.956 13.6418 8.724C13.3858 8.484 13.2578 8.144 13.2578 7.704C13.2578 7.512 13.2818 7.304 13.3298 7.08L13.4258 6.612C13.4578 6.476 13.4738 6.328 13.4738 6.168C13.4738 5.784 13.3298 5.592 13.0418 5.592C12.9138 5.592 12.7778 5.628 12.6338 5.7C12.4978 5.772 12.3378 5.884 12.1538 6.036L11.5298 9H9.80181L11.5418 0.84L13.3178 0.599999L12.4178 4.824L14.7338 3H15.9218L13.5218 4.668C13.6418 4.636 13.7738 4.62 13.9178 4.62C14.3498 4.62 14.6778 4.752 14.9018 5.016C15.1258 5.28 15.2378 5.616 15.2378 6.024C15.2378 6.192 15.2218 6.344 15.1898 6.48L15.0578 7.08C15.0178 7.224 14.9978 7.352 14.9978 7.464C14.9978 7.76 15.1538 7.908 15.4658 7.908C15.7058 7.908 15.8978 7.824 16.0418 7.656C16.1858 7.48 16.3298 7.212 16.4738 6.852H16.9778C16.4818 8.332 15.7458 9.072 14.7698 9.072ZM18.4728 2.352C18.2088 2.352 17.9848 2.26 17.8008 2.076C17.6168 1.892 17.5248 1.668 17.5248 1.404C17.5248 1.14 17.6168 0.916 17.8008 0.732C17.9848 0.539999 18.2088 0.443999 18.4728 0.443999C18.7368 0.443999 18.9608 0.539999 19.1448 0.732C19.3368 0.916 19.4328 1.14 19.4328 1.404C19.4328 1.668 19.3368 1.892 19.1448 2.076C18.9608 2.26 18.7368 2.352 18.4728 2.352ZM17.6568 9.072C17.2728 9.072 16.9608 8.952 16.7208 8.712C16.4888 8.472 16.3727 8.112 16.3727 7.632C16.3727 7.432 16.4047 7.172 16.4688 6.852L17.2848 3H19.0128L18.1488 7.08C18.1168 7.2 18.1008 7.328 18.1008 7.464C18.1008 7.624 18.1368 7.74 18.2088 7.812C18.2888 7.876 18.4168 7.908 18.5928 7.908C18.8248 7.908 19.0408 7.812 19.2408 7.62C19.4408 7.42 19.5848 7.164 19.6728 6.852H20.1768C19.8808 7.716 19.5008 8.304 19.0368 8.616C18.5728 8.92 18.1128 9.072 17.6568 9.072ZM21.264 9.072C20.72 9.072 20.304 8.94 20.016 8.676C19.728 8.404 19.584 8.024 19.584 7.536C19.584 7.296 19.612 7.068 19.668 6.852L20.952 0.84L22.728 0.599999L22.152 3.3C22.376 3.164 22.56 3.076 22.704 3.036C22.848 2.988 22.992 2.964 23.136 2.964C24.08 2.964 24.552 3.648 24.552 5.016C24.552 5.568 24.444 6.16 24.228 6.792C24.02 7.416 23.668 7.952 23.172 8.4C22.684 8.848 22.048 9.072 21.264 9.072ZM21.936 7.908C22.184 7.908 22.416 7.756 22.632 7.452C22.848 7.14 23.02 6.756 23.148 6.3C23.276 5.836 23.34 5.392 23.34 4.968C23.34 4.648 23.284 4.376 23.172 4.152C23.06 3.928 22.904 3.816 22.704 3.816C22.584 3.816 22.448 3.836 22.296 3.876C22.152 3.908 22.052 3.96 21.996 4.032L21.336 7.08C21.312 7.176 21.3 7.268 21.3 7.356C21.3 7.724 21.512 7.908 21.936 7.908ZM26.596 9.072C26.052 9.072 25.636 8.94 25.348 8.676C25.06 8.404 24.916 8.024 24.916 7.536C24.916 7.296 24.944 7.068 25 6.852L26.284 0.84L28.06 0.599999L27.484 3.3C27.708 3.164 27.892 3.076 28.036 3.036C28.18 2.988 28.324 2.964 28.468 2.964C29.412 2.964 29.884 3.648 29.884 5.016C29.884 5.568 29.776 6.16 29.56 6.792C29.352 7.416 29 7.952 28.504 8.4C28.016 8.848 27.38 9.072 26.596 9.072ZM27.268 7.908C27.516 7.908 27.748 7.756 27.964 7.452C28.18 7.14 28.352 6.756 28.48 6.3C28.608 5.836 28.672 5.392 28.672 4.968C28.672 4.648 28.616 4.376 28.504 4.152C28.392 3.928 28.236 3.816 28.036 3.816C27.916 3.816 27.78 3.836 27.628 3.876C27.484 3.908 27.384 3.96 27.328 4.032L26.668 7.08C26.644 7.176 26.632 7.268 26.632 7.356C26.632 7.724 26.844 7.908 27.268 7.908ZM31.52 9.072C31.136 9.072 30.824 8.952 30.584 8.712C30.352 8.472 30.236 8.112 30.236 7.632C30.236 7.432 30.268 7.172 30.332 6.852L31.616 0.84L33.392 0.599999L32.012 7.08C31.98 7.2 31.964 7.328 31.964 7.464C31.964 7.624 32 7.74 32.072 7.812C32.152 7.876 32.28 7.908 32.456 7.908C32.688 7.908 32.904 7.812 33.104 7.62C33.304 7.42 33.448 7.164 33.536 6.852H34.04C33.744 7.716 33.364 8.304 32.9 8.616C32.436 8.92 31.976 9.072 31.52 9.072ZM35.2233 9.072C34.6393 9.072 34.1833 8.92 33.8553 8.616C33.5272 8.304 33.3632 7.82 33.3632 7.164C33.3632 6.612 33.4712 6.004 33.6873 5.34C33.9033 4.676 34.2553 4.104 34.7433 3.624C35.2313 3.136 35.8513 2.892 36.6033 2.892C37.4833 2.892 37.9233 3.276 37.9233 4.044C37.9233 4.492 37.7953 4.904 37.5393 5.28C37.2833 5.656 36.9433 5.96 36.5193 6.192C36.0953 6.416 35.6433 6.544 35.1633 6.576C35.1473 6.752 35.1393 6.872 35.1393 6.936C35.1393 7.6 35.3873 7.932 35.8833 7.932C36.1073 7.932 36.3473 7.872 36.6033 7.752C36.8593 7.632 37.0913 7.48 37.2993 7.296C37.0833 8.48 36.3913 9.072 35.2233 9.072ZM35.2473 6C35.5513 5.992 35.8353 5.892 36.0993 5.7C36.3713 5.508 36.5873 5.264 36.7473 4.968C36.9153 4.664 36.9993 4.348 36.9993 4.02C36.9993 3.692 36.8993 3.528 36.6992 3.528C36.4193 3.528 36.1393 3.784 35.8593 4.296C35.5873 4.8 35.3833 5.368 35.2473 6Z" fill="#7E12E9"/>
</svg>
